<svg width="32" height="20" viewBox="0 0 32 20" fill="none" xmlns="http://www.w3.org/2000/svg">
<path d="M31.2707 1.28908C31.4905 0.546524 31.2707 0 30.2133 0H26.7143C25.8233 0 25.4134 0.469298 25.1936 0.99206C25.1936 0.99206 23.4114 5.33455 20.8927 8.15034C20.0788 8.96419 19.7046 9.22557 19.259 9.22557C19.0392 9.22557 18.7006 8.96419 18.7006 8.22163V1.28908C18.7006 0.398012 18.4511 0 17.7145 0H12.2136C11.6552 0 11.3226 0.415834 11.3226 0.801965C11.3226 1.64551 12.5819 1.84155 12.7126 4.21774V9.37408C12.7126 10.5028 12.5107 10.7107 12.0651 10.7107C10.877 10.7107 7.98995 6.35038 6.27909 1.36037C5.93454 0.392072 5.59593 0 4.69892 0H1.19998C0.201976 0 2.26611e-08 0.469298 2.26611e-08 0.99206C2.26611e-08 1.91878 1.1881 6.52265 5.53059 12.6057C8.4236 16.7581 12.4988 19.0095 16.2056 19.0095C18.4333 19.0095 18.7066 18.5105 18.7066 17.6492C18.7066 13.6809 18.5046 13.3067 19.6214 13.3067C20.1382 13.3067 21.0293 13.5681 23.1085 15.57C25.4847 17.9462 25.8767 19.0095 27.2074 19.0095H30.7064C31.7044 19.0095 32.2093 18.5105 31.9182 17.5244C31.2529 15.4512 26.7559 11.1859 26.554 10.9008C26.0371 10.2355 26.1856 9.93843 26.554 9.34438C26.5599 9.33844 30.8311 3.32667 31.2707 1.28908Z" fill="white"/>
</svg>
